<svg xmlns="http://www.w3.org/2000/svg" width="24" height="24" fill="none"><path fill="#1E2222" d="M11.8 21.75h.4c.75 0 1.125 0 1.388-.191a1 1 0 0 0 .221-.221C14 21.075 14 20.7 14 19.95v-6.325h1.2c.75 0 1.125 0 1.388-.191a1 1 0 0 0 .221-.221c.191-.263.191-.638.191-1.388v-.192c0-.75 0-1.125-.191-1.387a1 1 0 0 0-.221-.222c-.263-.19-.638-.19-1.388-.19H14V7.541c0-.466 0-.7.076-.883a1 1 0 0 1 .541-.541c.184-.076.417-.076.883-.076s.699 0 .883-.076a1 1 0 0 0 .54-.542C17 5.241 17 5.008 17 4.542v-.736c0-.519 0-.778-.094-.979a1 1 0 0 0-.483-.483c-.201-.094-.46-.094-.979-.094-1.813 0-2.72 0-3.423.328a3.5 3.5 0 0 0-1.693 1.693C10 4.974 10 5.88 10 7.694v2.14H8.8c-.75 0-1.125 0-1.388.19a1 1 0 0 0-.221.222C7 10.508 7 10.883 7 11.633v.192c0 .75 0 1.125.191 1.388a1 1 0 0 0 .221.221c.263.191.638.191 1.388.191H10v6.325c0 .75 0 1.125.191 1.388a1 1 0 0 0 .221.221c.263.191.638.191 1.388.191"/></svg>